#define DeltaFeatherLaplace_width 48
#define DeltaFeatherLaplace_height 48
static unsigned char DeltaFeatherLaplace_bits[] = {
   0x00, 0x00, 0x00, 0x08, 0x00, 0x00, 0x00, 0x00, 0x00, 0x1c, 0x00, 0x00,
   0x00, 0x00, 0x80, 0x1b, 0x00, 0x00, 0x00, 0x00, 0xc0, 0x08, 0x00, 0x00,
   0x00, 0x00, 0xe0, 0x08, 0x00, 0x00, 0x00, 0x00, 0x20, 0x0c, 0x00, 0x00,
   0x00, 0x00, 0x30, 0x04, 0x00, 0x00, 0x00, 0x00, 0x10, 0x07, 0x00, 0x00,
   0x00, 0x00, 0x0c, 0x09, 0x00, 0x00, 0x00, 0x00, 0x26, 0x19, 0x00, 0x00,
   0x00, 0x00, 0x22, 0x12, 0x00, 0x00, 0x00, 0x00, 0x22, 0x32, 0x00, 0x00,
   0x00, 0x00, 0x23, 0x65, 0x00, 0x00, 0x00, 0x00, 0x11, 0x64, 0x00, 0x00,
   0x00, 0x80, 0x11, 0xcc, 0x00, 0x00, 0x00, 0x80, 0x11, 0x88, 0x00, 0x00,
   0x00, 0x80, 0x10, 0x8c, 0x01, 0x00, 0x00, 0x80, 0x50, 0x04, 0x03, 0x00,
   0x00, 0xc0, 0x08, 0x04, 0x03, 0x00, 0x00, 0xc0, 0x08, 0x06, 0x06, 0x00,
   0x00, 0xa0, 0x00, 0x03, 0x04, 0x00, 0x00, 0xa0, 0x08, 0x01, 0x0c, 0x00,
   0x00, 0x30, 0x81, 0x01, 0x08, 0x00, 0x00, 0x18, 0x89, 0x04, 0x18, 0x00,
   0x00, 0x18, 0xca, 0x06, 0x10, 0x00, 0x00, 0x0c, 0x0a, 0x05, 0x30, 0x00,
   0x00, 0x84, 0x09, 0x04, 0x20, 0x00, 0x00, 0x86, 0x08, 0x04, 0x40, 0x00,
   0x00, 0x02, 0x09, 0x04, 0xc0, 0x00, 0x00, 0x03, 0x03, 0x04, 0x80, 0x00,
   0x80, 0x01, 0x12, 0x04, 0x80, 0x01, 0x80, 0x01, 0x14, 0x06, 0x00, 0x01,
   0xc0, 0x00, 0x18, 0x02, 0x00, 0x03, 0x40, 0x00, 0x18, 0x03, 0x00, 0x06,
   0x60, 0x00, 0x08, 0x0f, 0x00, 0x04, 0x20, 0x00, 0x18, 0x08, 0x00, 0x0c,
   0x30, 0x00, 0x30, 0x0c, 0x00, 0x08, 0x18, 0x00, 0x60, 0x0c, 0x00, 0x18,
   0x08, 0x00, 0xc0, 0x06, 0x00, 0x30, 0x0c, 0x00, 0x80, 0x03, 0x00, 0x30,
   0x04, 0x00, 0x00, 0x03, 0x00, 0x60, 0x06, 0x00, 0x00, 0x02, 0x00, 0x40,
   0x02, 0x00, 0x00, 0x06, 0x00, 0xc0, 0xfb, 0xff, 0xff, 0x0d, 0xff, 0xdf,
   0xfc, 0xff, 0xff, 0xff, 0xff, 0x3f, 0x00, 0x00, 0x00, 0x00, 0x00, 0x00,
   0x00, 0x00, 0x00, 0x00, 0x00, 0x00, 0x00, 0x00, 0x00, 0x00, 0x00, 0x00 };
